<svg width="43" height="32" viewBox="0 0 43 32" fill="none" xmlns="http://www.w3.org/2000/svg">
<path d="M35.7887 2.68799C33.0367 1.42933 30.114 0.511997 27.0634 0C26.6794 0.661337 26.2527 1.55732 25.954 2.26133C22.7092 1.79199 19.4879 1.79199 16.2879 2.26133C15.9892 1.55732 15.5412 0.661337 15.1785 0C12.1066 0.511997 9.18388 1.42933 6.45109 2.68799C0.925774 10.8373 -0.567562 18.7946 0.179104 26.6452C3.84843 29.3119 7.38979 30.9333 10.8693 32C11.7226 30.8479 12.4906 29.6106 13.1519 28.3093C11.8933 27.8399 10.6986 27.2639 9.5466 26.5812C9.84526 26.368 10.1439 26.1333 10.4213 25.8987C17.3759 29.0773 24.9087 29.0773 31.778 25.8987C32.0767 26.1333 32.354 26.368 32.6527 26.5812C31.5006 27.2639 30.3061 27.8399 29.0473 28.3093C29.7087 29.6106 30.4767 30.8479 31.33 32C34.8073 30.9333 38.37 29.3119 42.0201 26.6452C42.9374 17.5573 40.5673 9.66404 35.7887 2.68799ZM14.1119 21.8026C12.0212 21.8026 10.3146 19.904 10.3146 17.5787C10.3146 15.2534 11.9786 13.3546 14.1119 13.3546C16.2239 13.3546 17.9518 15.2534 17.9091 17.5787C17.9091 19.904 16.2239 21.8026 14.1119 21.8026ZM28.1301 21.8026C26.0393 21.8026 24.3305 19.904 24.3305 17.5787C24.3305 15.2534 25.9967 13.3546 28.1301 13.3546C30.242 13.3546 31.97 15.2534 31.9273 17.5787C31.9273 19.904 30.2634 21.8026 28.1301 21.8026Z" fill="#00AEEF"/>
</svg>
