<svg width="40" height="40" viewBox="0 0 40 40" fill="none" xmlns="http://www.w3.org/2000/svg">
<path d="M40 20C40 8.95429 31.0457 -1.05194e-05 20 -1.05194e-05C8.9543 -1.05194e-05 0 8.95429 0 20C0 29.9826 7.31371 38.2566 16.875 39.757V25.7812H11.7969V20H16.875V15.5937C16.875 10.5812 19.8609 7.81249 24.4293 7.81249C26.6175 7.81249 28.9062 8.20311 28.9062 8.20311V13.125H26.3843C23.8998 13.125 23.125 14.6667 23.125 16.2483V20H28.6719L27.7852 25.7812H23.125V39.757C32.6863 38.2566 40 29.9826 40 20Z" fill="white"/>
</svg>
