<svg width="80" height="80" viewBox="0 0 80 80" fill="none" xmlns="http://www.w3.org/2000/svg">
<rect width="80" height="80" rx="40" fill="white"/>
<path d="M18.9034 57.666H26.315V39.6664L15.7271 31.7255V54.4896C15.7271 56.2472 17.1511 57.666 18.9034 57.666Z" fill="#4285F4"/>
<path d="M51.7261 57.666H59.1376C60.8953 57.666 62.314 56.2419 62.314 54.4896V31.7255L51.7261 39.6664" fill="#34A853"/>
<path d="M51.7261 25.9023V39.6667L62.314 31.7257V27.4905C62.314 23.5624 57.83 21.323 54.6907 23.6788" fill="#FBBC04"/>
<path d="M26.3151 39.6665V25.9021L39.0206 35.4313L51.7262 25.9021V39.6665L39.0206 49.1956" fill="#EA4335"/>
<path d="M15.7271 27.4905V31.7257L26.315 39.6667V25.9023L23.3504 23.6788C20.2058 21.323 15.7271 23.5624 15.7271 27.4905Z" fill="#C5221F"/>
</svg>
