<svg width="46" height="37" viewBox="0 0 46 37" fill="none" xmlns="http://www.w3.org/2000/svg">
<path d="M4.52743 34.8166H13.6131V4.2509L10.8291 2.46804C6.80057 -0.110245 1.5 2.77661 1.5 7.54918V31.8029C1.5 33.4692 2.85771 34.82 4.53086 34.82" stroke="white" stroke-width="3" stroke-linecap="round" stroke-linejoin="round"/>
<path d="M1.5 7.5492V11.5812L13.6131 19.3401L22.6989 25.1618L31.7846 19.3401L43.9011 11.5812V7.54577C43.9011 2.7732 38.5971 -0.113659 34.5651 2.47148L31.788 4.25434L22.6989 10.0726L13.6131 4.25091L10.8291 2.46806C6.80057 -0.11023 1.5 2.77663 1.5 7.5492Z" stroke="white" stroke-width="3" stroke-linecap="round" stroke-linejoin="round"/>
<path d="M31.7842 34.8166H40.8699C41.267 34.818 41.6604 34.7409 42.0277 34.5899C42.3949 34.4389 42.7287 34.2169 43.01 33.9366C43.2912 33.6563 43.5144 33.3232 43.6667 32.9565C43.8189 32.5897 43.8973 32.1966 43.8973 31.7995V7.54577C43.8973 2.7732 38.5968 -0.113659 34.5648 2.47148L31.7876 4.25434L31.7842 34.8166Z" stroke="white" stroke-width="3" stroke-linecap="round" stroke-linejoin="round"/>
</svg>
