<svg width="128" height="128" viewBox="0 0 128 128" fill="none" xmlns="http://www.w3.org/2000/svg">
<path d="M124 123.987C121.546 116.976 116.974 110.9 110.916 106.601C104.859 102.301 97.6147 99.9901 90.1864 99.9871C82.758 99.9901 75.5142 102.301 69.4566 106.601C63.399 110.9 58.8271 116.976 56.373 123.987M71.1997 58.6538C74.6093 62.1822 78.6946 64.9877 83.2121 66.9028C87.7295 68.8179 92.5864 69.8034 97.4931 69.8005C102.466 69.8659 107.401 68.9224 112 67.0271" stroke="#AEAEB2" stroke-width="8" stroke-linecap="round" stroke-linejoin="round"/>
<path d="M89.4939 99.9868V123.987M68.2139 69.9601C68.2139 75.7878 70.5289 81.3768 74.6497 85.4976C78.7705 89.6184 84.3595 91.9335 90.1872 91.9335C96.0149 91.9335 101.604 89.6184 105.725 85.4976C109.845 81.3768 112.161 75.7878 112.161 69.9601C112.161 64.1325 109.845 58.5435 105.725 54.4227C101.604 50.3019 96.0149 47.9868 90.1872 47.9868C84.3595 47.9868 78.7705 50.3019 74.6497 54.4227C70.5289 58.5435 68.2139 64.1325 68.2139 69.9601Z" stroke="#AEAEB2" stroke-width="8" stroke-linecap="round" stroke-linejoin="round"/>
<path d="M30.6134 113.854C22.5378 108.446 15.8968 101.157 11.2617 92.6142C6.62655 84.0714 4.13609 74.5306 4.00452 64.8122C3.87295 55.0939 6.10421 45.4891 10.5064 36.824C14.9085 28.1589 21.3498 20.6929 29.276 15.0683C37.2023 9.44362 46.3764 5.82867 56.009 4.5344C65.6416 3.24012 75.4445 4.30526 84.5744 7.63819C93.7042 10.9711 101.888 16.4721 108.421 23.6678C114.954 30.8636 119.642 39.5388 122.08 48.9472" stroke="#AEAEB2" stroke-width="8" stroke-linecap="round" stroke-linejoin="round"/>
<path d="M42.6664 103.454C36.236 83.0532 34.5935 61.4452 37.8664 40.3071C39.2395 28.0835 43.2227 16.2975 49.5464 5.74707M4.10645 59.9871H51.9998M13.2264 31.9871H114.773M9.01311 87.9871H51.9998M78.4531 5.74707C83.466 13.7821 86.9386 22.6805 88.6931 31.9871" stroke="#AEAEB2" stroke-width="8" stroke-linecap="round" stroke-linejoin="round"/>
</svg>
