<svg width="128" height="128" viewBox="0 0 128 128" fill="none" xmlns="http://www.w3.org/2000/svg">
<path d="M124 123.987C121.546 116.976 116.974 110.9 110.916 106.601C104.859 102.301 97.615 99.9901 90.1866 99.9871C82.7583 99.9901 75.5144 102.301 69.4568 106.601C63.3992 110.9 58.8273 116.976 56.3733 123.987M71.2 58.6538C74.6095 62.1822 78.6949 64.9877 83.2123 66.9028C87.7298 68.8179 92.5867 69.8034 97.4933 69.8005C102.467 69.8659 107.402 68.9224 112 67.0271" stroke="#00AEEF" stroke-width="8" stroke-linecap="round" stroke-linejoin="round"/>
<path d="M89.4933 99.9873V123.987M68.2133 69.9606C68.2133 75.7883 70.5284 81.3773 74.6492 85.4981C78.77 89.6189 84.359 91.934 90.1867 91.934C96.0143 91.934 101.603 89.6189 105.724 85.4981C109.845 81.3773 112.16 75.7883 112.16 69.9606C112.16 64.1329 109.845 58.5439 105.724 54.4231C101.603 50.3023 96.0143 47.9873 90.1867 47.9873C84.359 47.9873 78.77 50.3023 74.6492 54.4231C70.5284 58.5439 68.2133 64.1329 68.2133 69.9606Z" stroke="#00AEEF" stroke-width="8" stroke-linecap="round" stroke-linejoin="round"/>
<path d="M30.6133 113.854C22.5377 108.446 15.8966 101.157 11.2615 92.6142C6.62643 84.0714 4.13597 74.5306 4.0044 64.8122C3.87283 55.0939 6.10408 45.4891 10.5062 36.824C14.9084 28.1589 21.3496 20.6929 29.2759 15.0683C37.2022 9.44362 46.3762 5.82867 56.0089 4.5344C65.6415 3.24012 75.4444 4.30526 84.5742 7.63819C93.7041 10.9711 101.888 16.4721 108.421 23.6678C114.954 30.8636 119.642 39.5388 122.08 48.9472" stroke="#00AEEF" stroke-width="8" stroke-linecap="round" stroke-linejoin="round"/>
<path d="M42.6666 103.454C36.2362 83.0535 34.5937 61.4454 37.8666 40.3073C39.2396 28.0837 43.2229 16.2978 49.5466 5.74731M4.10663 59.9873H52M13.2266 31.9873H114.773M9.0133 87.9873H52M78.4533 5.74731C83.4662 13.7823 86.9388 22.6807 88.6933 31.9873" stroke="#00AEEF" stroke-width="8" stroke-linecap="round" stroke-linejoin="round"/>
</svg>
