<svg width="121" height="116" viewBox="0 0 121 116" fill="none" xmlns="http://www.w3.org/2000/svg">
<path d="M81.4958 74.5467C93.367 77.8363 104.318 83.8229 113.496 92.04L100.162 109L76.1624 95.6667L81.4958 74.5467ZM81.4958 74.5467C74.5469 72.6299 67.3708 71.6612 60.1624 71.6667C52.7758 71.6667 45.6184 72.6693 38.8291 74.5467M38.8291 74.5467C26.9579 77.8363 16.0067 83.8229 6.8291 92.04L20.1624 109L44.1624 95.6667L38.8291 74.5467ZM6.8291 69V47.6667H18.8398C19.8478 43.752 21.3998 40.056 23.4051 36.6587L14.9091 28.1627L29.9918 13.08L38.4878 21.576C41.9255 19.5468 45.6309 18.01 49.4958 17.0107V5H70.8291V17.0107C74.7438 18.0187 78.4398 19.5707 81.8371 21.576L90.3331 13.08L105.416 28.1627L96.9198 36.6587C98.9304 40.056 100.477 43.752 101.485 47.6667H113.496V69" stroke="#AEAEB2" stroke-width="10"/>
<path d="M76.1621 58.3335C76.1621 54.09 74.4764 50.0204 71.4758 47.0198C68.4752 44.0192 64.4056 42.3335 60.1621 42.3335C55.9186 42.3335 51.849 44.0192 48.8484 47.0198C45.8478 50.0204 44.1621 54.09 44.1621 58.3335" stroke="#AEAEB2" stroke-width="10"/>
</svg>
