<svg width="121" height="116" viewBox="0 0 121 116" fill="none" xmlns="http://www.w3.org/2000/svg">
<path d="M81.4959 74.5467C93.3672 77.8363 104.318 83.8229 113.496 92.04L100.163 109L76.1626 95.6667L81.4959 74.5467ZM81.4959 74.5467C74.547 72.6299 67.371 71.6612 60.1626 71.6667C52.7759 71.6667 45.6186 72.6693 38.8293 74.5467M38.8293 74.5467C26.958 77.8363 16.0068 83.8229 6.82925 92.04L20.1626 109L44.1626 95.6667L38.8293 74.5467ZM6.82925 69V47.6667H18.8399C19.8479 43.752 21.3999 40.056 23.4053 36.6587L14.9093 28.1627L29.9919 13.08L38.4879 21.576C41.9256 19.5468 45.6311 18.01 49.4959 17.0107V5H70.8293V17.0107C74.7439 18.0187 78.4399 19.5707 81.8372 21.576L90.3332 13.08L105.416 28.1627L96.9199 36.6587C98.9306 40.056 100.477 43.752 101.485 47.6667H113.496V69" stroke="#00AEEF" stroke-width="10"/>
<path d="M76.1626 58.3333C76.1626 54.0898 74.4769 50.0201 71.4763 47.0195C68.4757 44.019 64.4061 42.3333 60.1626 42.3333C55.9191 42.3333 51.8495 44.019 48.8489 47.0195C45.8483 50.0201 44.1626 54.0898 44.1626 58.3333" stroke="#00AEEF" stroke-width="10"/>
</svg>
