<svg width="128" height="128" viewBox="0 0 128 128" fill="none" xmlns="http://www.w3.org/2000/svg">
<path d="M64.0001 4.57129V59.4284M64.0001 59.4284L45.7144 41.1427M64.0001 59.4284L82.2858 41.1427" stroke="#AEAEB2" stroke-width="10" stroke-linecap="round" stroke-linejoin="round"/>
<path d="M86.857 18.2856H118.857C120.069 18.2856 121.232 18.7673 122.089 19.6246C122.947 20.4819 123.428 21.6447 123.428 22.8571V95.9999C123.428 97.2124 122.947 98.3751 122.089 99.2324C121.232 100.09 120.069 100.571 118.857 100.571H9.14272C7.9303 100.571 6.76754 100.09 5.91023 99.2324C5.05292 98.3751 4.57129 97.2124 4.57129 95.9999V22.8571C4.57129 21.6447 5.05292 20.4819 5.91023 19.6246C6.76754 18.7673 7.9303 18.2856 9.14272 18.2856H41.1427M54.857 100.571L45.7141 123.429M73.1427 100.571L82.2856 123.429M36.5713 123.429H91.4284" stroke="#AEAEB2" stroke-width="10" stroke-linecap="round" stroke-linejoin="round"/>
</svg>
