<svg width="128" height="128" viewBox="0 0 128 128" fill="none" xmlns="http://www.w3.org/2000/svg">
<path d="M63.9999 4.57153V59.4287M63.9999 59.4287L45.7142 41.143M63.9999 59.4287L82.2857 41.143" stroke="#00AEEF" stroke-width="10" stroke-linecap="round" stroke-linejoin="round"/>
<path d="M86.8571 18.2859H118.857C120.07 18.2859 121.232 18.7675 122.09 19.6248C122.947 20.4821 123.429 21.6449 123.429 22.8573V96.0002C123.429 97.2126 122.947 98.3754 122.09 99.2327C121.232 100.09 120.07 100.572 118.857 100.572H9.14284C7.93042 100.572 6.76766 100.09 5.91035 99.2327C5.05304 98.3754 4.57141 97.2126 4.57141 96.0002V22.8573C4.57141 21.6449 5.05304 20.4821 5.91035 19.6248C6.76766 18.7675 7.93042 18.2859 9.14284 18.2859H41.1428M54.8571 100.572L45.7143 123.429M73.1428 100.572L82.2857 123.429M36.5714 123.429H91.4285" stroke="#00AEEF" stroke-width="10" stroke-linecap="round" stroke-linejoin="round"/>
</svg>
