<svg width="40" height="40" viewBox="0 0 40 40" fill="none" xmlns="http://www.w3.org/2000/svg">
<path d="M40 2.94118V37.0588C40 37.8389 39.6901 38.587 39.1386 39.1386C38.587 39.6901 37.8389 40 37.0588 40H2.94118C2.16113 40 1.41303 39.6901 0.861451 39.1386C0.309873 38.587 0 37.8389 0 37.0588L0 2.94118C0 2.16113 0.309873 1.41303 0.861451 0.861451C1.41303 0.309873 2.16113 0 2.94118 0L37.0588 0C37.8389 0 38.587 0.309873 39.1386 0.861451C39.6901 1.41303 40 2.16113 40 2.94118V2.94118ZM11.7647 15.2941H5.88235V34.1176H11.7647V15.2941ZM12.2941 8.82353C12.2972 8.37858 12.2126 7.93737 12.0452 7.5251C11.8778 7.11284 11.6308 6.73758 11.3184 6.42077C11.0059 6.10396 10.6342 5.85179 10.2243 5.67866C9.81435 5.50554 9.37436 5.41484 8.92941 5.41176H8.82353C7.91867 5.41176 7.05088 5.77122 6.41105 6.41105C5.77122 7.05088 5.41176 7.91867 5.41176 8.82353C5.41176 9.72839 5.77122 10.5962 6.41105 11.236C7.05088 11.8758 7.91867 12.2353 8.82353 12.2353V12.2353C9.26851 12.2462 9.71129 12.1694 10.1266 12.0092C10.5418 11.8489 10.9215 11.6084 11.2438 11.3014C11.5661 10.9944 11.8247 10.6269 12.005 10.2199C12.1852 9.81293 12.2834 9.3744 12.2941 8.92941V8.82353ZM34.1176 22.6824C34.1176 17.0235 30.5176 14.8235 26.9412 14.8235C25.7702 14.7649 24.6043 15.0143 23.5597 15.5469C22.5152 16.0795 21.6285 16.8766 20.9882 17.8588H20.8235V15.2941H15.2941V34.1176H21.1765V24.1059C21.0914 23.0805 21.4144 22.063 22.0753 21.2744C22.7361 20.4858 23.6814 19.9898 24.7059 19.8941H24.9294C26.8 19.8941 28.1882 21.0706 28.1882 24.0353V34.1176H34.0706L34.1176 22.6824Z" fill="#00AEEF"/>
</svg>
