<svg width="37" height="53" viewBox="0 0 37 53" fill="none" xmlns="http://www.w3.org/2000/svg">
<path d="M18.375 50.25C27.75 37.125 35.25 25.875 35.25 18.375C35.25 13.8995 33.4721 9.60725 30.3074 6.44257C27.1427 3.2779 22.8505 1.5 18.375 1.5C13.8995 1.5 9.60725 3.2779 6.44257 6.44257C3.2779 9.60725 1.5 13.8995 1.5 18.375C1.5 25.875 9 37.125 18.375 50.25Z" stroke="white" stroke-width="3"/>
<path d="M25.875 18.375C25.875 20.3641 25.0848 22.2718 23.6783 23.6783C22.2718 25.0848 20.3641 25.875 18.375 25.875C16.3859 25.875 14.4782 25.0848 13.0717 23.6783C11.6652 22.2718 10.875 20.3641 10.875 18.375C10.875 16.3859 11.6652 14.4782 13.0717 13.0717C14.4782 11.6652 16.3859 10.875 18.375 10.875C20.3641 10.875 22.2718 11.6652 23.6783 13.0717C25.0848 14.4782 25.875 16.3859 25.875 18.375Z" stroke="white" stroke-width="3"/>
</svg>
