<svg width="44" height="44" viewBox="0 0 44 44" fill="none" xmlns="http://www.w3.org/2000/svg">
<path fill-rule="evenodd" clip-rule="evenodd" d="M8 0C5.87827 0 3.84344 0.842855 2.34315 2.34315C0.842855 3.84344 0 5.87827 0 8V36C0 38.1217 0.842855 40.1566 2.34315 41.6569C3.84344 43.1571 5.87827 44 8 44H36C38.1217 44 40.1566 43.1571 41.6569 41.6569C43.1571 40.1566 44 38.1217 44 36V8C44 5.87827 43.1571 3.84344 41.6569 2.34315C40.1566 0.842855 38.1217 0 36 0H8ZM7.332 7C7.11306 7.08136 6.91615 7.21273 6.75695 7.38364C6.59775 7.55454 6.48066 7.76027 6.41501 7.98442C6.34935 8.20857 6.33695 8.44495 6.37879 8.67474C6.42063 8.90453 6.51556 9.12137 6.656 9.308L17.884 24.208L6.054 36.898L5.966 37H10.06L19.72 26.642L27.144 36.498C27.3162 36.7261 27.5501 36.9003 27.818 37H36.662C36.8806 36.9182 37.0771 36.7865 37.2359 36.6154C37.3946 36.4443 37.5113 36.2386 37.5765 36.0145C37.6418 35.7903 37.6538 35.5541 37.6117 35.3245C37.5696 35.0949 37.4745 34.8784 37.334 34.692L26.106 19.792L38.034 7H33.934L24.274 17.36L16.846 7.504C16.674 7.27512 16.4402 7.10024 16.172 7H7.332ZM29.092 34.096L10.862 9.904H14.9L33.128 34.094L29.092 34.096Z" fill="#00AEEF"/>
</svg>
