<svg width="80" height="80" viewBox="0 0 80 80" fill="none" xmlns="http://www.w3.org/2000/svg">
<rect width="80" height="80" rx="40" fill="white"/>
<path d="M20.0001 58.4003L22.87 47.7388C20.5555 43.5856 19.8202 38.7392 20.7989 34.0888C21.7777 29.4385 24.4049 25.2961 28.1985 22.422C31.992 19.5478 36.6975 18.1346 41.4514 18.4416C46.2053 18.7487 50.6887 20.7554 54.079 24.0936C57.4692 27.4317 59.5389 31.8774 59.9082 36.6148C60.2775 41.3522 58.9217 46.0636 56.0896 49.8844C53.2574 53.7052 49.1388 56.3791 44.4897 57.4155C39.8405 58.4518 34.9726 57.7811 30.7792 55.5265L20.0001 58.4003ZM31.299 51.5368L31.9656 51.9313C35.003 53.727 38.5506 54.4701 42.0556 54.0448C45.5605 53.6195 48.826 52.0496 51.3431 49.5798C53.8602 47.1101 55.4876 43.8791 55.9715 40.3905C56.4555 36.9019 55.7689 33.3516 54.0188 30.2929C52.2686 27.2341 49.5532 24.8388 46.2957 23.4801C43.0382 22.1214 39.4216 21.8757 36.0095 22.7812C32.5974 23.6868 29.5815 25.6928 27.4317 28.4866C25.2818 31.2803 24.119 34.705 24.1242 38.2268C24.1213 41.147 24.931 44.0107 26.4631 46.4991L26.8811 47.1866L25.2767 53.1372L31.299 51.5368Z" fill="#00CD4C"/>
<path fill-rule="evenodd" clip-rule="evenodd" d="M47.4787 40.9644C47.0879 40.65 46.6303 40.4287 46.1408 40.3174C45.6513 40.2061 45.1427 40.2076 44.6539 40.322C43.9195 40.6263 43.445 41.7759 42.9704 42.3506C42.8703 42.4884 42.7233 42.585 42.5569 42.6224C42.3905 42.6597 42.2161 42.6352 42.0665 42.5535C39.3778 41.5031 37.124 39.5768 35.6714 37.0875C35.5475 36.9321 35.4888 36.7349 35.5078 36.5373C35.5267 36.3397 35.6218 36.1572 35.773 36.0281C36.3023 35.5055 36.6909 34.8581 36.9029 34.146C36.95 33.3605 36.7696 32.578 36.3832 31.892C36.0845 30.9301 35.516 30.0737 34.7449 29.4238C34.3471 29.2454 33.9061 29.1856 33.4751 29.2516C33.0441 29.3175 32.6414 29.5065 32.3156 29.7957C31.7501 30.2824 31.3012 30.8894 31.002 31.5721C30.7028 32.2548 30.5609 32.9957 30.5869 33.7403C30.5886 34.1584 30.6417 34.5747 30.7451 34.98C31.0074 35.9536 31.4109 36.8838 31.9427 37.7412C32.3264 38.3979 32.7451 39.0337 33.1969 39.6458C34.6652 41.6564 36.511 43.3634 38.6317 44.6723C39.6958 45.3374 40.8332 45.8781 42.0213 46.2839C43.2555 46.8419 44.6182 47.0561 45.9646 46.9038C46.7318 46.7879 47.4586 46.4858 48.0812 46.024C48.7038 45.5622 49.2031 44.9548 49.5351 44.2553C49.7301 43.8327 49.7893 43.3603 49.7045 42.9029C49.5012 41.9674 48.247 41.4152 47.4787 40.9644Z" fill="#00CD4C"/>
</svg>
