<svg width="50" height="50" viewBox="0 0 50 50" fill="none" xmlns="http://www.w3.org/2000/svg">
<path d="M42.5 7.27513C40.2077 4.9604 37.4776 3.12505 34.4688 1.87604C31.46 0.627031 28.2327 -0.0106579 24.975 0.000134738C11.325 0.000134738 0.2 11.1251 0.2 24.7751C0.2 29.1501 1.35 33.4001 3.5 37.1501L0 50.0001L13.125 46.5501C16.75 48.5251 20.825 49.5751 24.975 49.5751C38.625 49.5751 49.75 38.4501 49.75 24.8001C49.75 18.1751 47.175 11.9501 42.5 7.27513ZM24.975 45.3751C21.275 45.3751 17.65 44.3751 14.475 42.5001L13.725 42.0501L5.925 44.1001L8 36.5001L7.5 35.7251C5.44387 32.4428 4.35231 28.6483 4.35 24.7751C4.35 13.4251 13.6 4.17513 24.95 4.17513C30.45 4.17513 35.625 6.32514 39.5 10.2251C41.419 12.1348 42.9398 14.4065 43.9741 16.9085C45.0083 19.4104 45.5355 22.0928 45.525 24.8001C45.575 36.1501 36.325 45.3751 24.975 45.3751ZM36.275 29.9751C35.65 29.6751 32.6 28.1751 32.05 27.9501C31.475 27.7501 31.075 27.6501 30.65 28.2501C30.225 28.8751 29.05 30.2751 28.7 30.6751C28.35 31.1001 27.975 31.1501 27.35 30.8251C26.725 30.5251 24.725 29.8501 22.375 27.7501C20.525 26.1001 19.3 24.0751 18.925 23.4501C18.575 22.8251 18.875 22.5001 19.2 22.1751C19.475 21.9001 19.825 21.4501 20.125 21.1001C20.425 20.7501 20.55 20.4751 20.75 20.0751C20.95 19.6501 20.85 19.3001 20.7 19.0001C20.55 18.7001 19.3 15.6501 18.8 14.4001C18.3 13.2001 17.775 13.3501 17.4 13.3251H16.2C15.775 13.3251 15.125 13.4751 14.55 14.1001C14 14.7251 12.4 16.2251 12.4 19.2751C12.4 22.3251 14.625 25.2751 14.925 25.6751C15.225 26.1001 19.3 32.3501 25.5 35.0251C26.975 35.6751 28.125 36.0501 29.025 36.3251C30.5 36.8001 31.85 36.7251 32.925 36.5751C34.125 36.4001 36.6 35.0751 37.1 33.6251C37.625 32.1751 37.625 30.9501 37.45 30.6751C37.275 30.4001 36.9 30.2751 36.275 29.9751Z" fill="white"/>
</svg>
