<svg width="44" height="31" viewBox="0 0 44 31" fill="none" xmlns="http://www.w3.org/2000/svg">
<path fill-rule="evenodd" clip-rule="evenodd" d="M39.1899 0.919986C41.0842 1.42707 42.573 2.91571 43.08 4.81001C43.9963 8.24003 44 15.4007 44 15.4007C44 15.4007 44 22.5614 43.08 25.9915C42.573 27.8858 41.0842 29.3744 39.1899 29.8814C35.76 30.8014 21.9999 30.8014 21.9999 30.8014C21.9999 30.8014 8.24003 30.8014 4.81 29.8814C2.91571 29.3744 1.42707 27.8858 0.919986 25.9915C2.75386e-07 22.5614 0 15.4007 0 15.4007C0 15.4007 2.75386e-07 8.24003 0.919986 4.81001C1.42707 2.91571 2.91571 1.42707 4.81 0.919986C8.24003 2.75386e-07 21.9999 0 21.9999 0C21.9999 0 35.76 2.75386e-07 39.1899 0.919986ZM29.0268 15.4013L17.5958 22.0005V8.80202L29.0268 15.4013Z" fill="#00AEEF"/>
</svg>
